# This file uses centimeters as units for non-parametric coordinates.

mtllib Rock_4.mtl
g default
v -0.168560 -13.075534 27.222265
v 7.955262 -6.538412 32.668907
v -4.753213 -6.538412 34.060406
v 18.567409 -6.538412 -32.687623
v 33.242526 -6.538412 -5.047770
v 25.118697 -13.075534 -10.494413
v -8.402162 6.538412 39.502917
v 3.619363 22.569082 24.084140
v 19.245800 21.813974 -8.754174
v 33.242526 6.538412 -5.047770
v 18.567409 6.538412 -32.687623
v -29.966623 20.525046 1.566321
v -7.955260 6.538412 -32.668954
v -0.521997 21.813974 -22.007556
v 8.402165 6.538412 -39.502943
v -41.851102 -6.538412 17.076971
v -41.741333 -6.538412 -0.650330
v -33.617510 -13.075534 4.796312
v 0.168574 -13.075534 -27.222307
v -7.955260 -6.538412 -32.668954
v 8.402165 -6.538412 -39.502943
vt 0.101028 0.124866
vt 0.937250 0.764902
vt 0.257806 0.852459
vt 0.833774 0.078643
vt 0.879653 0.738260
vt 0.094420 0.319139
vt 0.648945 0.716350
vt 0.883150 0.563817
vt 0.081116 0.812056
vt 0.168222 0.390892
vt 0.222934 0.323510
vt 0.426019 0.125596
vt 0.166319 0.446838
vt 0.654471 0.647563
vt 0.798114 0.341601
vt 0.103283 0.550797
vt 0.218679 0.448619
vt 0.532850 0.350859
vt 0.825673 0.152580
vt 0.534049 0.222238
vt 0.538356 0.136287
vt 0.522140 0.061935
vt 0.256390 0.921647
vt 0.417899 0.217536
vt 0.220582 0.392673
vt 0.248556 0.709866
vt 0.205104 0.554260
vt 0.937647 0.148051
vt 0.653969 0.542828
vt 0.494583 0.629829
vt 0.075339 0.703979
vt 0.486998 0.710148
vt 0.619269 0.766672
vt 0.982493 0.689991
vt 0.084554 0.874574
vt 0.084013 0.919572
vt 0.880963 0.805044
vt 0.273318 0.130726
vn -0.241465 -0.868825 0.432248
vn -0.241465 -0.868825 0.432248
vn -0.241465 -0.868825 0.432248
vn -0.241465 -0.868825 0.432248
vn 0.461545 -0.831397 0.309444
vn 0.461545 -0.831397 0.309444
vn 0.461545 -0.831397 0.309444
vn 0.461545 -0.831397 0.309444
vn 0.484245 0.155791 0.860951
vn 0.484245 0.155791 0.860951
vn 0.484245 0.155791 0.860951
vn 0.484245 0.155791 0.860951
vn 0.225186 -0.914594 -0.335872
vn 0.225186 -0.914594 -0.335872
vn 0.225186 -0.914594 -0.335872
vn 0.225186 -0.914594 -0.335872
vn 0.883229 0.000000 -0.468942
vn 0.883229 0.000000 -0.468942
vn 0.883229 0.000000 -0.468942
vn 0.883229 0.000000 -0.468942
vn -0.384890 0.773281 0.503881
vn -0.384890 0.773281 0.503881
vn -0.384890 0.773281 0.503881
vn 0.665594 0.682912 0.301026
vn 0.665594 0.682912 0.301026
vn 0.665594 0.682912 0.301026
vn 0.343398 0.787236 -0.512188
vn 0.343398 0.787236 -0.512188
vn 0.343398 0.787236 -0.512188
vn 0.343398 0.787236 -0.512188
vn -0.916786 0.399338 -0.005677
vn -0.916786 0.399338 -0.005677
vn -0.916786 0.399338 -0.005677
vn -0.493956 0.646307 -0.581631
vn -0.493956 0.646307 -0.581631
vn -0.493956 0.646307 -0.581631
vn -0.385499 0.000000 -0.922708
vn -0.385499 0.000000 -0.922708
vn -0.385499 0.000000 -0.922708
vn -0.385499 0.000000 -0.922708
vn -0.388781 -0.824955 -0.410242
vn -0.388781 -0.824955 -0.410242
vn -0.388781 -0.824955 -0.410242
vn -0.388781 -0.824955 -0.410242
vn 0.780065 0.200778 0.592609
vn 0.780065 0.200778 0.592609
vn 0.780065 0.200778 0.592610
vn 0.780065 0.200778 0.592609
vn -0.029064 0.999483 -0.013763
vn -0.029064 0.999483 -0.013763
vn -0.029064 0.999483 -0.013763
vn -0.029064 0.999483 -0.013763
vn -0.715193 0.245922 -0.654234
vn -0.715193 0.245922 -0.654234
vn -0.715193 0.245922 -0.654234
vn -0.715193 0.245922 -0.654234
vn 0.000000 -1.000000 0.000000
vn 0.000000 -1.000000 0.000000
vn 0.000000 -1.000000 0.000000
vn 0.000000 -1.000000 0.000000
vn 0.556876 0.000000 -0.830596
vn 0.556876 0.000000 -0.830596
vn 0.556876 0.000000 -0.830596
vn 0.556876 0.000000 -0.830596
vn -0.373115 -0.443320 0.815017
vn -0.373115 -0.443320 0.815017
vn -0.373115 -0.443320 0.815017
vn 0.078381 -0.693842 0.715849
vn 0.078381 -0.693842 0.715849
vn 0.078381 -0.693842 0.715849
vn 0.721226 -0.577233 -0.382928
vn 0.721227 -0.577233 -0.382928
vn 0.721226 -0.577233 -0.382928
vn 0.725097 0.570983 -0.384983
vn 0.725097 0.570983 -0.384984
vn 0.725097 0.570983 -0.384984
vn -0.296404 0.639389 -0.709455
vn -0.296404 0.639389 -0.709455
vn -0.296404 0.639389 -0.709455
vn -0.625336 -0.780346 -0.003872
vn -0.625337 -0.780346 -0.003872
vn -0.625337 -0.780346 -0.003872
vn -0.241071 -0.780346 -0.577014
vn -0.241071 -0.780346 -0.577014
vn -0.241071 -0.780346 -0.577014
vn -0.597820 0.579792 0.553582
vn -0.597820 0.579792 0.553582
vn -0.597820 0.579792 0.553582
s off
g pCube4
usemtl standardSurface2SG
f 1/36/1 3/35/2 16/3/3 18/23/4
f 2/5/5 1/37/6 6/33/7 5/7/8
f 3/2/9 2/5/10 8/8/11 7/34/12
f 4/10/13 6/6/14 19/11/15 21/25/16
f 5/7/17 4/32/18 11/30/19 10/14/20
f 7/9/21 8/31/22 12/26/23
f 8/8/24 10/14/25 9/29/26
f 9/16/27 11/13/28 15/17/29 14/27/30
f 12/15/31 17/19/32 16/28/33
f 12/15/34 14/18/35 13/20/36
f 13/20/37 15/24/38 21/12/39 20/21/40
f 18/4/41 17/19/42 20/21/43 19/22/44
f 2/5/45 5/7/46 10/14/47 8/8/48
f 8/31/49 9/16/50 14/27/51 12/26/52
f 12/15/53 13/20/54 20/21/55 17/19/56
f 18/38/57 19/11/58 6/6/59 1/1/60
f 4/10/61 21/25/62 15/17/63 11/13/64
f 16/3/65 3/35/66 7/9/67
f 1/37/68 2/5/69 3/2/70
f 4/32/71 5/7/72 6/33/73
f 9/29/74 10/14/75 11/30/76
f 13/20/77 14/18/78 15/24/79
f 16/28/80 17/19/81 18/4/82
f 19/22/83 20/21/84 21/12/85
f 16/3/86 7/9/87 12/26/88
