# This file uses centimeters as units for non-parametric coordinates.

mtllib Rock_5.mtl
g default
v -51.627702 -12.745417 35.424221
v -26.430157 -12.530236 52.431809
v 22.277766 -12.745417 35.424221
v 16.578841 -12.490499 52.360959
v -32.057695 2.050717 27.279618
v -26.287505 15.664644 -41.992291
v 14.604078 15.664644 -12.003065
v -32.057695 12.845086 -41.992288
v -26.287505 12.845086 -58.020046
v 14.647522 15.664644 -41.992288
v -51.627702 -12.845082 -41.992288
v -26.287505 -12.845082 -73.048569
v 32.057740 -12.845082 -41.992288
v 26.287521 -12.845082 -73.048569
v -28.220950 -19.972500 59.412308
v -56.135088 -20.211665 40.467418
v 25.734186 -20.211665 40.467418
v 19.422632 -19.928482 59.333819
v -28.065763 -20.322841 -79.820542
v -56.136556 -20.322834 -45.406812
v 30.174603 -20.322841 -79.820542
v 36.566624 -20.322834 -45.406812
v -28.154468 -20.322834 -45.406812
v -28.311158 -20.211665 40.467418
v 20.707373 -20.211665 40.467418
v 27.442114 -20.322834 -45.406812
vt 0.732787 0.170073
vt 0.636999 0.186452
vt 0.281966 0.384595
vt 0.800090 0.085102
vt 0.629482 0.215751
vt 0.723589 0.214438
vt 0.959599 0.860328
vt 0.815358 0.942939
vt 0.296809 0.411182
vt 0.447277 0.508571
vt 0.947560 0.654139
vt 0.361082 0.322706
vt 0.951534 0.606810
vt 0.945410 0.519773
vt 0.379479 0.213591
vt 0.546237 0.508314
vt 0.543248 0.403036
vt 0.644496 0.403682
vt 0.373632 0.182180
vt 0.949877 0.490046
vt 0.662916 0.373763
vt 0.553325 0.375448
vt 0.947571 0.389045
vt 0.941631 0.136936
vt 0.797724 0.140591
vt 0.784350 0.393213
vt 0.678165 0.100251
vt 0.946393 0.975414
vt 0.344698 0.096680
vt 0.231561 0.180301
vt 0.246850 0.216531
vt 0.941641 0.945364
vt 0.298181 0.317734
vt 0.966300 0.655326
vt 0.627246 0.301709
vt 0.552377 0.346657
vt 0.778890 0.494488
vt 0.278186 0.369066
vt 0.219373 0.389680
vt 0.791052 0.523834
vt 0.239142 0.417961
vt 0.828347 0.647004
vt 0.823835 0.736204
vt 0.806503 0.972733
vt 0.939955 0.081321
vn 0.000382 -0.999907 0.013611
vn 0.000000 -0.999920 0.012623
vn 0.000361 -0.999908 0.013556
vn -0.362147 0.768975 0.526808
vn -0.362147 0.768975 0.526808
vn -0.362147 0.768975 0.526808
vn 0.753013 0.611021 0.244180
vn 0.753013 0.611022 0.244180
vn 0.753013 0.611021 0.244180
vn -0.434790 0.889794 0.138653
vn -0.434790 0.889794 0.138653
vn -0.434790 0.889794 0.138653
vn -0.132386 0.974622 0.180514
vn -0.132386 0.974622 0.180514
vn -0.132386 0.974622 0.180514
vn -0.752448 0.432018 -0.497174
vn -0.752448 0.432018 -0.497174
vn -0.752448 0.432018 -0.497174
vn -0.752448 0.432018 -0.497174
vn 0.000000 0.984877 -0.173257
vn 0.000000 0.984877 -0.173257
vn 0.000000 0.984877 -0.173257
vn 0.842915 0.514749 -0.156613
vn 0.842915 0.514749 -0.156613
vn 0.842915 0.514749 -0.156613
vn 0.000000 -1.000000 0.000000
vn 0.000000 -1.000000 0.000000
vn 0.000000 -1.000000 0.000000
vn 0.049842 0.902950 0.426846
vn 0.049842 0.902950 0.426846
vn 0.049841 0.902950 0.426846
vn 0.049841 0.902950 0.426846
vn 0.000000 1.000000 0.000000
vn 0.000000 1.000000 0.000000
vn 0.000000 1.000000 0.000000
vn 0.108013 0.657342 -0.745812
vn 0.108013 0.657342 -0.745812
vn 0.108013 0.657342 -0.745812
vn 0.108013 0.657342 -0.745812
vn 0.000000 -0.999999 0.001295
vn 0.000000 -0.999999 0.001295
vn 0.000000 -0.999999 0.001295
vn 0.000000 -0.999999 0.001295
vn 0.885599 0.457409 0.080573
vn 0.885599 0.457409 0.080573
vn 0.885598 0.457409 0.080573
vn 0.885598 0.457409 0.080573
vn -0.712878 0.699431 0.050994
vn -0.712878 0.699431 0.050994
vn -0.712878 0.699431 0.050994
vn -0.712878 0.699431 0.050994
vn -0.433648 0.887455 -0.156119
vn -0.433648 0.887455 -0.156119
vn -0.433648 0.887455 -0.156119
vn -0.419761 0.670607 0.611627
vn -0.419761 0.670607 0.611627
vn -0.419761 0.670607 0.611627
vn -0.419761 0.670607 0.611627
vn 0.796876 0.545754 0.259117
vn 0.796876 0.545754 0.259117
vn 0.796876 0.545754 0.259117
vn 0.796876 0.545754 0.259117
vn 0.000570 0.684044 0.729440
vn 0.000570 0.684044 0.729440
vn 0.000570 0.684044 0.729440
vn 0.000570 0.684044 0.729440
vn -0.618012 0.603211 -0.504180
vn -0.618012 0.603211 -0.504180
vn -0.618012 0.603211 -0.504180
vn -0.618012 0.603211 -0.504180
vn 0.000000 0.671261 -0.741221
vn 0.000000 0.671261 -0.741221
vn 0.000000 0.671261 -0.741221
vn 0.000000 0.671261 -0.741221
vn 0.814395 0.560244 -0.151289
vn 0.814395 0.560244 -0.151289
vn 0.814395 0.560244 -0.151289
vn 0.814395 0.560244 -0.151289
vn 0.872165 0.476804 0.109479
vn 0.872165 0.476804 0.109479
vn 0.872165 0.476805 0.109479
vn 0.872165 0.476805 0.109479
vn -0.856262 0.516541 -0.000659
vn -0.856262 0.516541 -0.000659
vn -0.856262 0.516541 -0.000659
vn -0.856262 0.516541 -0.000659
vn 0.000000 -1.000000 0.000000
vn 0.000000 -1.000000 0.000000
vn 0.000000 -1.000000 0.000000
vn 0.000000 -0.999999 0.001295
vn 0.000000 -0.999999 0.001295
vn 0.000000 -0.999999 0.001295
vn 0.000000 -0.999999 0.001295
vn 0.000461 -0.999904 0.013843
vn 0.000440 -0.999903 0.013896
vn 0.000000 -0.999887 0.015008
s 1
g pCube6
usemtl standardSurface2SG
f 15/1/1 16/2/2 24/27/3
s off
f 1/5/4 2/6/5 5/35/6
f 4/41/7 3/9/8 7/10/9
f 5/7/10 6/11/11 8/34/12
f 6/11/13 5/7/14 7/43/15
f 8/12/16 9/33/17 12/31/18 11/15/19
f 9/13/20 6/11/21 10/42/22
f 10/16/23 13/17/24 14/18/25
s 2
f 20/19/26 19/30/27 23/29/28
s off
f 2/32/29 4/8/30 7/43/31 5/7/32
f 6/11/33 7/43/34 10/42/35
f 9/13/36 10/42/37 14/40/38 12/14/39
s 3
f 20/19/40 23/29/41 24/27/42 16/2/43
s off
f 3/9/44 13/17/45 10/16/46 7/10/47
f 11/15/48 1/5/49 5/35/50 8/12/51
f 8/34/52 6/11/53 9/13/54
f 2/6/55 1/5/56 16/2/57 15/1/58
f 3/9/59 4/41/60 18/39/61 17/3/62
f 4/8/63 2/32/64 15/28/65 18/44/66
f 11/15/67 12/31/68 19/30/69 20/19/70
f 12/14/71 14/40/72 21/37/73 19/20/74
f 14/18/75 13/17/76 22/22/77 21/21/78
f 13/17/79 3/9/80 17/3/81 22/22/82
f 1/5/83 11/15/84 20/19/85 16/2/86
s 2
f 26/36/87 21/21/88 22/22/89
s 3
f 25/38/90 26/36/91 22/22/92 17/3/93
s 1
f 18/39/94 25/38/95 17/3/96
f 15/45/1 24/24/3 25/25/95 18/4/94
s 3
f 24/24/42 23/23/41 26/26/91 25/25/90
s 2
f 23/23/28 19/20/27 21/37/88 26/26/87
