# This file uses centimeters as units for non-parametric coordinates.

mtllib Rock_3.mtl
g default
v -19.856823 -57.153502 57.652249
v 19.856823 -57.153502 32.102234
v 8.132221 57.153502 26.132221
v -13.067417 1.058711 -26.132209
v 13.067417 44.088704 -26.132209
v 26.132221 57.153502 -13.067406
v -13.067417 -53.588705 -40.942210
v -26.132221 -57.153502 -13.067406
v 13.067417 -53.588705 -40.942210
v 26.132221 -57.153502 -13.067406
v -35.089821 50.621101 0.000000
v -5.679350 67.771094 3.205108
v -0.853052 69.323495 7.607302
v -9.409999 67.943503 26.132221
v -23.626889 43.687401 40.592223
v -35.542226 10.789998 26.132221
v 26.519597 9.541400 25.300611
v 41.002215 20.972103 -10.444791
v -20.108178 71.191280 26.132221
v -39.653868 63.630743 12.093282
v -41.836819 56.239187 19.643240
v -23.813745 74.222915 17.252495
v -26.234191 73.508650 15.204822
v -30.399284 54.817168 36.000089
v -41.263194 52.097439 26.132221
vt 0.345595 0.906397
vt 0.095377 0.589698
vt 0.318191 0.666812
vt 0.191450 0.661663
vt 0.722458 0.057386
vt 0.761392 0.456436
vt 0.640433 0.270901
vt 0.609553 0.060795
vt 0.508103 0.789143
vt 0.416513 0.889323
vt 0.398333 0.878542
vt 0.438985 0.795512
vt 0.429063 0.700482
vt 0.476311 0.137674
vt 0.479645 0.483066
vt 0.313349 0.310125
vt 0.166680 0.268206
vt 0.863573 0.313732
vt 0.756427 0.701787
vt 0.760565 0.772002
vt 0.768668 0.782781
vt 0.866963 0.722618
vt 0.827247 0.675094
vt 0.836545 0.482035
vt 0.809499 0.792000
vt 0.860898 0.467272
vt 0.795618 0.680151
vt 0.806189 0.507609
vt 0.769039 0.560784
vt 0.041207 0.481000
vt 0.673840 0.545902
vt 0.557590 0.440507
vt 0.987117 0.059310
vt 0.324791 0.102566
vt 0.420667 0.074380
vt 0.514845 0.074229
vt 0.351422 0.939817
vt 0.380414 0.949112
vt 0.388113 0.954753
vt 0.128980 0.685340
vt 0.286092 0.526143
vt 0.331595 0.839460
vt 0.436076 0.229145
vt 0.345878 0.457672
vt 0.569812 0.503635
vt 0.067999 0.624687
vt 0.021170 0.613876
vt 0.093028 0.689961
vn 0.337070 0.194252 0.921222
vn 0.337071 0.194252 0.921222
vn 0.337071 0.194252 0.921222
vn 0.337071 0.194252 0.921222
vn -0.815777 0.053847 -0.575854
vn -0.815777 0.053847 -0.575854
vn -0.815777 0.053847 -0.575854
vn -0.815777 0.053847 -0.575854
vn -0.048891 0.790058 -0.611080
vn -0.048891 0.790058 -0.611080
vn -0.048891 0.790058 -0.611080
vn -0.048891 0.790058 -0.611080
vn 0.594388 0.187602 -0.781990
vn 0.594388 0.187602 -0.781990
vn 0.594388 0.187602 -0.781990
vn 0.000000 -0.991921 -0.126853
vn 0.000000 -0.991921 -0.126853
vn 0.000000 -0.991921 -0.126853
vn 0.000000 -0.991921 -0.126853
vn 0.552442 0.794014 0.253675
vn 0.552442 0.794014 0.253675
vn 0.552442 0.794014 0.253675
vn -0.155232 0.188564 -0.969715
vn -0.155232 0.188564 -0.969715
vn -0.155232 0.188564 -0.969715
vn -0.155232 0.188564 -0.969715
vn 0.000000 -1.000000 0.000000
vn 0.000000 -1.000000 0.000000
vn 0.000000 -1.000000 0.000000
vn 0.000000 -1.000000 0.000000
vn 0.841663 0.342969 0.417103
vn 0.841664 0.342969 0.417103
vn 0.841663 0.342969 0.417103
vn 0.841663 0.342969 0.417103
vn -0.978767 -0.185666 0.086852
vn -0.978767 -0.185666 0.086852
vn -0.978767 -0.185666 0.086852
vn -0.392611 0.406317 -0.825084
vn -0.392611 0.406317 -0.825084
vn -0.392611 0.406317 -0.825084
vn -0.392611 0.406317 -0.825084
vn -0.269872 0.603087 -0.750637
vn -0.269872 0.603087 -0.750637
vn -0.269872 0.603087 -0.750637
vn -0.269872 0.603087 -0.750637
vn 0.041419 0.927162 -0.372366
vn 0.041419 0.927161 -0.372366
vn 0.041419 0.927162 -0.372366
vn 0.041419 0.927162 -0.372366
vn 0.501060 0.814616 0.292131
vn 0.501060 0.814616 0.292131
vn 0.501060 0.814616 0.292131
vn 0.534049 0.160400 0.830098
vn 0.534049 0.160400 0.830098
vn 0.534049 0.160400 0.830098
vn -0.656992 -0.090992 0.748386
vn -0.656992 -0.090992 0.748386
vn -0.656992 -0.090992 0.748386
vn -0.656992 -0.090992 0.748386
vn -0.990545 -0.137188 -0.000000
vn -0.990545 -0.137188 -0.000000
vn -0.990545 -0.137188 -0.000000
vn -0.990545 -0.137188 -0.000000
vn 0.330142 0.063067 0.941822
vn 0.330142 0.063067 0.941822
vn 0.330142 0.063067 0.941822
vn 0.964012 -0.136756 0.227989
vn 0.964012 -0.136756 0.227989
vn 0.964012 -0.136756 0.227989
vn 0.964012 -0.136756 0.227989
vn 0.730025 0.006017 -0.683394
vn 0.730025 0.006017 -0.683394
vn 0.730025 0.006017 -0.683394
vn 0.730025 0.006017 -0.683394
vn -0.834400 0.061467 0.547721
vn -0.834400 0.061467 0.547721
vn -0.834400 0.061467 0.547721
vn -0.948503 -0.040746 -0.314135
vn -0.948503 -0.040746 -0.314135
vn -0.948503 -0.040746 -0.314135
vn -0.948503 -0.040746 -0.314135
vn 0.284547 0.937298 0.201260
vn 0.284547 0.937298 0.201260
vn 0.284547 0.937298 0.201260
vn 0.284547 0.937298 0.201260
vn 0.135814 0.447370 0.883977
vn 0.135814 0.447370 0.883977
vn 0.135814 0.447370 0.883977
vn 0.135814 0.447370 0.883977
vn -0.591262 0.655089 0.470391
vn -0.591262 0.655089 0.470391
vn -0.591262 0.655089 0.470391
vn -0.591262 0.655089 0.470391
vn -0.591262 0.655089 0.470391
vn -0.591262 0.655089 0.470391
vn -0.591262 0.655089 0.470391
s off
g pCube5
usemtl standardSurface3SG
f 14/40/1 15/2/2 17/41/3 3/4/4
f 8/5/5 11/6/6 4/7/7 7/8/8
f 5/9/9 12/10/10 13/11/11 6/12/12
f 5/9/13 6/12/14 18/13/15
f 8/34/16 7/35/17 9/14/18 10/43/19
f 13/11/20 3/42/21 6/12/22
f 4/7/23 5/32/24 9/36/25 7/8/26
f 8/34/27 10/43/28 2/16/29 1/17/30
f 17/3/31 18/13/32 6/12/33 3/42/34
f 8/5/35 1/33/36 16/18/37
f 4/7/38 11/6/39 12/31/40 5/32/41
f 12/31/42 11/6/43 20/28/44 23/29/45
f 13/11/46 12/10/47 23/39/48 22/38/49
f 13/11/50 14/1/51 3/42/52
f 1/17/53 2/16/54 15/2/55
f 16/30/56 15/2/57 24/46/58 25/47/59
f 8/5/60 16/18/61 25/26/62 21/24/63
f 17/41/64 15/2/65 2/16/66
f 2/44/67 10/15/68 18/13/69 17/3/70
f 5/9/71 18/13/72 10/15/73 9/45/74
f 1/17/75 15/2/76 16/30/77
f 21/24/78 20/28/79 11/6/80 8/5/81
f 22/38/82 19/37/83 14/1/84 13/11/85
f 19/48/86 24/46/87 15/2/88 14/40/89
f 21/27/90 25/23/91 24/22/92 19/25/93 22/21/94 23/20/95 20/19/96
