# This file uses centimeters as units for non-parametric coordinates.

mtllib Rock_2.mtl
g default
v -25.159803 -45.349541 60.756090
v 50.314575 -43.691843 59.643003
v 25.159803 -1.642323 61.707638
v -50.314575 43.715942 0.951687
v -25.159803 57.738616 21.835354
v -25.159803 73.400512 -18.980479
v 25.159803 73.400512 -18.980479
v 25.159803 57.738616 21.835354
v 50.314575 43.715942 0.951687
v -50.314575 15.665066 -40.823959
v -25.159803 1.642399 -61.707617
v 25.159803 1.642379 -61.707632
v 50.314575 15.665066 -40.823959
v -50.314575 -43.715910 -0.951708
v -25.159803 -57.738581 -21.835364
v 25.159803 -57.738581 -21.835364
v 50.314575 -43.715910 -0.951708
v -25.159803 69.643295 -43.973674
v -25.159803 -61.344169 36.935632
v -25.159803 -65.652436 -1.211296
v 25.159803 -65.570292 -1.425424
v 36.077335 -60.506472 36.628582
v 25.159803 68.803847 -46.199413
v 0.000000 66.925270 -58.696024
v 31.448496 52.071659 -65.269760
v 25.159803 64.754512 -59.921906
v 12.579902 51.297383 -72.324688
v 25.159803 48.565990 -70.490681
v 18.869852 64.284868 -63.046059
vt 0.420142 0.141761
vt 0.262689 0.170044
vt 0.354726 0.106044
vt 0.384983 0.521447
vt 0.264932 0.492556
vt 0.614629 0.641636
vt 0.286266 0.367541
vt 0.445393 0.087895
vt 0.449514 0.689140
vt 0.374316 0.669050
vt 0.170603 0.655533
vt 0.116607 0.593302
vt 0.585422 0.557010
vt 0.568634 0.507849
vt 0.185968 0.312117
vt 0.078909 0.701527
vt 0.230587 0.756646
vt 0.088522 0.772064
vt 0.557209 0.363243
vt 0.564425 0.217165
vt 0.454322 0.358190
vt 0.422780 0.740391
vt 0.566664 0.172044
vt 0.509854 0.497458
vt 0.121019 0.861092
vt 0.470621 0.499073
vt 0.102322 0.807628
vt 0.137381 0.816730
vt 0.449111 0.455825
vt 0.142448 0.838130
vt 0.474597 0.463332
vt 0.097038 0.824894
vt 0.460392 0.509263
vt 0.265587 0.832096
vt 0.469584 0.537409
vt 0.488038 0.591037
vt 0.463850 0.167408
vt 0.435478 0.586343
vt 0.461627 0.212064
vt 0.517360 0.675381
vt 0.565252 0.813575
vt 0.554493 0.913297
vt 0.719509 0.905590
vt 0.253978 0.098186
vt 0.199115 0.122807
vt 0.696119 0.851772
vt 0.179065 0.454782
vt 0.105349 0.282795
vt 0.245451 0.459225
vt 0.354977 0.411389
vt 0.570519 0.093627
vt 0.604462 0.955117
vn -0.817877 -0.477695 0.320756
vn -0.817877 -0.477695 0.320756
vn -0.817877 -0.477695 0.320756
vn 0.015607 -0.039719 0.999089
vn 0.015607 -0.039719 0.999089
vn 0.015607 -0.039719 0.999089
vn -0.697584 0.253078 0.670320
vn -0.697584 0.253078 0.670320
vn -0.697584 0.253078 0.670320
vn 0.712759 -0.700104 -0.042773
vn 0.712759 -0.700104 -0.042773
vn 0.712759 -0.700104 -0.042773
vn 0.712759 -0.700104 -0.042773
vn 0.707107 0.394180 0.587045
vn 0.707107 0.394180 0.587045
vn 0.707107 0.394180 0.587045
vn 0.707107 0.394180 0.587045
vn -0.861755 0.458008 -0.218191
vn -0.861755 0.458008 -0.218191
vn -0.861755 0.458008 -0.218191
vn -0.861755 0.458008 -0.218191
vn 0.000000 0.933625 0.358252
vn 0.000000 0.933625 0.358252
vn 0.000000 0.933625 0.358252
vn 0.000000 0.933625 0.358252
vn 0.862356 0.457652 -0.216556
vn 0.862356 0.457652 -0.216556
vn 0.862356 0.457652 -0.216556
vn 0.862356 0.457652 -0.216556
vn -0.707107 -0.394180 -0.587045
vn -0.707107 -0.394180 -0.587045
vn -0.707107 -0.394180 -0.587045
vn -0.707107 -0.394180 -0.587045
vn 0.707107 -0.394180 -0.587045
vn 0.707107 -0.394180 -0.587045
vn 0.707107 -0.394180 -0.587045
vn 0.707107 -0.394180 -0.587045
vn -0.000000 -0.933625 -0.358251
vn -0.000000 -0.933625 -0.358251
vn -0.000000 -0.933625 -0.358251
vn -0.000000 -0.933625 -0.358251
vn -0.194247 0.428052 0.882632
vn -0.194247 0.428052 0.882632
vn -0.194247 0.428052 0.882632
vn -0.194247 0.428052 0.882632
vn 0.005641 0.987141 -0.159753
vn 0.005641 0.987141 -0.159753
vn 0.005641 0.987141 -0.159753
vn 0.005641 0.987141 -0.159753
vn 0.005641 0.987141 -0.159753
vn -0.000000 -0.557455 -0.830207
vn -0.000000 -0.557455 -0.830207
vn -0.000000 -0.557455 -0.830207
vn -0.000000 -0.557455 -0.830207
vn 0.020915 -0.821825 0.569356
vn 0.020915 -0.821825 0.569356
vn 0.020915 -0.821825 0.569356
vn 0.020915 -0.821825 0.569356
vn 1.000000 0.000000 0.000000
vn 1.000000 0.000000 0.000000
vn 1.000000 0.000000 0.000000
vn 1.000000 0.000000 0.000000
vn -0.971387 -0.005169 0.237445
vn -0.971387 -0.005169 0.237445
vn -0.971387 -0.005169 0.237445
vn -0.971387 -0.005169 0.237445
vn -0.633097 0.722694 0.277313
vn -0.633097 0.722694 0.277313
vn -0.633097 0.722694 0.277313
vn 0.633097 0.722694 0.277313
vn 0.633097 0.722694 0.277313
vn 0.633097 0.722694 0.277313
vn -0.656819 -0.752633 -0.046174
vn -0.656819 -0.752633 -0.046174
vn -0.656819 -0.752633 -0.046174
vn -0.656819 -0.752633 -0.046174
vn -0.474436 0.222141 -0.851800
vn -0.474436 0.222141 -0.851800
vn -0.474436 0.222141 -0.851800
vn -0.552388 0.210355 -0.806609
vn -0.552388 0.210355 -0.806609
vn -0.552388 0.210355 -0.806609
vn 0.633097 -0.722694 -0.277312
vn 0.633097 -0.722694 -0.277312
vn 0.633097 -0.722694 -0.277312
vn 0.008749 -0.992634 0.120832
vn 0.008749 -0.992634 0.120832
vn 0.008749 -0.992634 0.120832
vn 0.008749 -0.992634 0.120832
vn 0.300180 0.502533 -0.810773
vn 0.300180 0.502533 -0.810773
vn 0.300180 0.502533 -0.810773
vn 0.300180 0.502533 -0.810773
vn 0.300180 0.502533 -0.810773
vn -0.482642 0.321832 -0.814543
vn -0.482642 0.321832 -0.814543
vn -0.482642 0.321832 -0.814543
vn -0.482642 0.321832 -0.814543
vn 0.068798 0.956841 -0.282352
vn 0.068798 0.956841 -0.282352
vn 0.068798 0.956841 -0.282352
vn 0.068798 0.956841 -0.282352
vn 0.899424 0.429628 -0.080356
vn 0.899424 0.429628 -0.080355
vn 0.899424 0.429628 -0.080355
vn 0.899424 0.429628 -0.080355
vn 0.676497 -0.135493 -0.723874
vn 0.676497 -0.135493 -0.723874
vn 0.676497 -0.135493 -0.723874
vn 0.676497 -0.135493 -0.723874
vn 0.019666 -0.204283 -0.978714
vn 0.019666 -0.204283 -0.978714
vn 0.019666 -0.204283 -0.978714
vn 0.019666 -0.204283 -0.978714
s off
g pCube3
usemtl standardSurface2SG
f 1/1/1 14/2/2 19/3/3
f 1/46/4 2/42/5 3/41/6
f 1/1/7 5/50/8 4/7/9
f 2/4/10 22/38/11 21/9/12 17/10/13
f 3/5/14 2/4/15 9/11/16 8/12/17
f 4/7/18 6/49/19 18/47/20 10/15/21
f 6/13/22 5/6/23 8/40/24 7/36/25
f 7/16/26 9/11/27 13/17/28 23/18/29
f 10/15/30 11/48/31 15/45/32 14/2/33
f 12/34/34 13/17/35 17/10/36 16/22/37
f 21/37/38 20/23/39 15/20/40 16/39/41
f 1/46/42 3/41/43 8/40/44 5/6/45
f 6/13/46 7/36/47 23/35/48 24/24/49 18/14/50
f 11/19/51 12/21/52 16/39/53 15/20/54
f 19/43/55 22/52/56 2/42/57 1/46/58
f 2/4/59 17/10/60 13/17/61 9/11/62
f 14/2/63 1/1/64 4/7/65 10/15/66
f 4/7/67 5/50/68 6/49/69
f 7/16/70 8/12/71 9/11/72
f 14/2/73 15/45/74 20/44/75 19/3/76
f 18/14/77 24/24/78 11/19/79
f 10/15/80 18/47/81 11/48/82
f 21/9/83 16/22/84 17/10/85
f 19/51/86 20/23/87 21/37/88 22/8/89
f 27/25/90 29/32/91 26/27/92 25/28/93 28/30/94
f 11/19/95 24/24/96 29/26/97 27/31/98
f 24/24/99 23/35/100 26/33/101 29/26/102
f 23/18/103 13/17/104 25/28/105 26/27/106
f 12/34/107 28/30/108 25/28/109 13/17/110
f 11/19/111 27/31/112 28/29/113 12/21/114
